/* XPM */
static char *wall1701018975[] = {
/* columns rows colors chars-per-pixel */
"64 64 256 2 ",
"   c #322EEC",
".  c #331AE9",
"X  c #781FEE",
"o  c #7B1DF6",
"O  c #6B1CF2",
"+  c #522AF4",
"@  c #6A28F4",
"#  c #7D24F5",
"$  c #7B24FB",
"%  c #7B2BFB",
"&  c #762AF6",
"*  c #7C34FC",
"=  c #7938F7",
"-  c #7232F3",
";  c #5015ED",
":  c #2F52F5",
">  c #1E7BF4",
",  c #1770F1",
"<  c #266AF7",
"1  c #366BF6",
"2  c #237EF4",
"3  c #2A7CF5",
"4  c #2A7AFA",
"5  c #357CFC",
"6  c #3C7CFA",
"7  c #377CF5",
"8  c #2C6EEC",
"9  c #1F49ED",
"0  c #4D57FC",
"q  c #7A4DE9",
"w  c #7A56EC",
"e  c #674BFE",
"r  c #7C4CF4",
"t  c #734DFB",
"y  c #7C4CFC",
"u  c #7846FB",
"i  c #6A5BFB",
"p  c #7B52F4",
"a  c #7C54FC",
"s  c #755BFC",
"d  c #7C5CFA",
"f  c #7757F6",
"g  c #675BED",
"h  c #4667F9",
"j  c #5B67FD",
"k  c #437DFB",
"l  c #4779F7",
"z  c #5B7DFA",
"x  c #5879F7",
"c  c #457BE8",
"v  c #6967FA",
"b  c #7C64F5",
"n  c #746DF5",
"m  c #7C6CF4",
"M  c #7C64FC",
"N  c #756DFA",
"B  c #7B6CFB",
"V  c #7564F9",
"C  c #6D75FC",
"Z  c #637CFC",
"A  c #6C7DFC",
"S  c #6878F6",
"D  c #7473F5",
"F  c #7C74F5",
"G  c #747CF6",
"H  c #7C7DF6",
"J  c #7474FB",
"K  c #7C73FB",
"L  c #747CFB",
"P  c #7C7CFC",
"I  c #786EEE",
"U  c #881CF7",
"Y  c #9219F1",
"T  c #8423F4",
"R  c #8425FB",
"E  c #822CFB",
"W  c #8A25F9",
"Q  c #9626FA",
"!  c #8333FD",
"~  c #8637F8",
"^  c #9833F8",
"/  c #852BEE",
"(  c #AD2DF6",
")  c #A71DF4",
"_  c #C72FF4",
"`  c #844CFC",
"'  c #8B4DFC",
"]  c #8747F9",
"[  c #954CFD",
"{  c #8353FC",
"}  c #835CFC",
"|  c #8958F9",
" . c #9656FC",
".. c #8B56ED",
"X. c #A858F9",
"o. c #B251F5",
"O. c #836CF5",
"+. c #8363FD",
"@. c #8A65FE",
"#. c #846CFC",
"$. c #8B6DFC",
"%. c #8966F5",
"&. c #936EFE",
"*. c #9868FA",
"=. c #8374F5",
"-. c #847AF6",
";. c #8C7BF5",
":. c #8374FC",
">. c #8B74FC",
",. c #837BFC",
"<. c #8B7CFC",
"1. c #8B73F4",
"2. c #9474FD",
"3. c #9B74FD",
"4. c #927CFD",
"5. c #9C7CFE",
"6. c #9577F5",
"7. c #8876EC",
"8. c #A969F9",
"9. c #B668FB",
"0. c #A57BF5",
"q. c #A474FC",
"w. c #A57BFC",
"e. c #AB7CFB",
"r. c #AA79F7",
"t. c #B57CFA",
"y. c #BA7BF8",
"u. c #AD71EB",
"i. c #CF52F6",
"p. c #C37DFB",
"a. c #CC7DF9",
"s. c #C97AF6",
"d. c #D27EF5",
"f. c #D979F8",
"g. c #D06DF0",
"h. c #E378FA",
"j. c #E47AE9",
"k. c #1C83F5",
"l. c #1990EE",
"z. c #2B82FB",
"x. c #2685F6",
"c. c #3A8CFE",
"v. c #3784F8",
"b. c #3191F0",
"n. c #34B1F1",
"m. c #14A2F4",
"M. c #4684F9",
"N. c #5B83FB",
"B. c #5B8BFC",
"V. c #5686F8",
"C. c #5994FC",
"Z. c #4D94F7",
"A. c #6383FB",
"S. c #6D83FB",
"D. c #6D8AFC",
"F. c #6788F8",
"G. c #7484F6",
"H. c #7C84F6",
"J. c #7C8CF4",
"K. c #7483FC",
"L. c #7B83FC",
"P. c #748BFC",
"I. c #7C8AFC",
"U. c #758CF4",
"Y. c #6896FB",
"T. c #7D93FD",
"R. c #7C9CFC",
"E. c #7897F8",
"W. c #738FED",
"Q. c #54ACF8",
"!. c #69A4FA",
"~. c #74A2FB",
"^. c #7BA2FC",
"/. c #7BA8F7",
"(. c #69B9F8",
"). c #7BB9F9",
"_. c #72B4EE",
"`. c #2ECDF4",
"'. c #21D1F2",
"]. c #49C6F6",
"[. c #54D3F5",
"{. c #79C6EC",
"}. c #65C8FB",
"|. c #7CCCF4",
" X c #7CC4FC",
".X c #7DCBFB",
"XX c #78C7F4",
"oX c #7CD3F5",
"OX c #7DDBF5",
"+X c #7DD4FC",
"@X c #7CDAFA",
"#X c #76D5F7",
"$X c #6FD4F0",
"%X c #7BE3FB",
"&X c #66E3F6",
"*X c #4AE3EF",
"=X c #8384F5",
"-X c #8383FC",
";X c #8B84FD",
":X c #838BFD",
">X c #8C8AFD",
",X c #8787F6",
"<X c #9383FD",
"1X c #9B84FD",
"2X c #928BFD",
"3X c #9786F6",
"4X c #8495FC",
"5X c #8A93FC",
"6X c #839BFD",
"7X c #8C9CFD",
"8X c #8698F5",
"9X c #9493FD",
"0X c #939BFC",
"qX c #9A9AF8",
"wX c #9198ED",
"eX c #A784F8",
"rX c #B784F9",
"tX c #A696FA",
"yX c #AF90F3",
"uX c #84A4FD",
"iX c #8BA3FD",
"pX c #83AAFA",
"aX c #89A9F7",
"sX c #95A3F9",
"dX c #84BBF5",
"fX c #83BBFB",
"gX c #86B7F8",
"hX c #97B6F3",
"jX c #8BBDEC",
"kX c #AFB4F6",
"lX c #C885FA",
"zX c #D582FA",
"xX c #D886F8",
"cX c #C697FC",
"vX c #D796F6",
"bX c #D187EC",
"nX c #E291FB",
"mX c #D2ADFA",
"MX c #E1BBFF",
"NX c #83C9EE",
"BX c #83C3F4",
"VX c #83CBF4",
"CX c #83C4FC",
"ZX c #8BC4FC",
"AX c #84CAFC",
"SX c #89CBFD",
"DX c #8AC9F4",
"FX c #98C9F7",
"GX c #84D4F4",
"HX c #82DCF5",
"JX c #83D4FB",
"KX c #88D7FA",
"LX c #93D2F2",
"PX c #B0CFF3",
"IX c #85E2F7",
"UX c #D4CBF8",
/* pixels */
"qXcXxXP.x.Z.B.P.L.;X;X,X:XI.:XI.:XU.T.4X7X5XtXvX5.z.Z.B.D.I.:X,X;XL.I.:XI.-X-XI.4X4X9XqXcXlXM.c.Z.Y.J.5XR.R.R.~.^.iX7X5X>XJ.T.4X",
"9XrXxXK.x.M.N.D.L.:X:X=XL.L.L.H.:.G L.,.:X<XeXf.0.v.v.V.S.L.-X;X,XH.I.=X:XP H G.L.:X3X,Xs.s.M.c.B.A.P.H.K.K.P.:X:X:X6X7X9XJ.P.:X",
"2XrXxXK.x.M.z L L.L.:X:X:X:X:X;X,.G L.P -X<XeXa.0.v.M.V.A P ,.:X:XI.H.L.;XL.L G ,.,.5.<Xs.p.l v.A.S.K.P L D D F K P L.>X>X4XI.:X",
"1XrXf.G 4 V.Z K K K L -X,.-.=X;X:XG.L.L.,X<XeXd.0.7 M.N.L F K P L.;X-X-X<.;XL.,.L ,.1X1XlXlXl 3 B.S.-.,.P F P K.:XF F ,.;X>X:X=X",
"1Xp.xXH 4 x C B #.B K P ,.=.:.-X:XI.L.L ;X1X0.d.0.v.k z B #.V N J :.:.F ,.:XI.-XG.:X6.3Xs.lXk 3 N.G -.F G L.L.K.:X:X,.,.:.<.-XH ",
"2.p.h.H 4 l C =.M N N K >.F D C P.,X:XP.>X1XeXd.0.4 l x K O.B C F >.:.n D K.I.,XD.:X3X3Xs.p.6 3 Z ,.<.K.D.L L C J -X;X,XH.,.>.K ",
"1.y.f.G 3 l J <.,.L L :X;X<.G Z U.J.L.F.;X3X0.f.e.4 k z :.<.K A ,.:X,.P S G.:X>XS.:XeXw.a.p.7 3 z P -XP.K.P :.B v D ,.<.H :.4.K ",
"2.y.xXL 2 l A ;XI.S.F.I.5X>XP.D.K.;X,.J 4.q.r.f.eX7 k Z -X:XK.F.H.:X>X:XY.F.-X-XJ =.3.r.s.p.l v.N.S.P U.H.,.2.#.J B #.$.B >.4.L ",
";Xy.f.L v.M.A.I.T.P.K.P <.=XD.F.=.<.L.H.2.q.t.f.e.3 v.V.P.5XP.F.G :.<.P.A.L ,.4.K.,.3.w.s.y.l x.N.L L P ,.<X;XL.P.=X;.=.P L.-XH.",
",.rXxXP z.M.A.P.5XI.P =.>.P P L.F P L.L.3.3.e.a.e.v.M.N.D.6X:XL.H -.,.K.G.P F G.L.4.q.e.s.lXM.z.N.G.H.K.L.,X:XP.D.:X<.;XG P <.<X",
";XrXzXG 4 M.N.K.<X<.=.#.=.D C K P L L 4.q.2.w.lX0.v.M.V.S.I.<.2.$.$.=.J B >.:.S.=.&.*.r.a.y.k 2 A.G.L.K.L.,X,XK.K.-X;X;XH.F -.;X",
";Xt.zXK.4 V.Z A 2.:.:.:.,.K.S.G >.P =.*.3.2.0.f.q.v.6 V.S ,.>.$.-.,.K.S.L.-X,.L >.3.2.q.a.y.M.k.B.P.I.L.P 4.>.B +.K ,.>X;X:.F P ",
";.t.bXK.4 V.z A 2.=.P -X:XL.K.K.,.P =.6.<.,.r.f.0.v.k z J -.,.:.P.P.L.D.L ,.=.=.1.4.=X1Xa.y.M.k.V.K.I.K.,.2.*.O.b D G :X2X;XL.L.",
"<.y.zXL 5 l A J 4.:XK.L :.F D B H P ,.;.;X:X0.h.0.v.6 Z K <.,.L.L.,.=.#.n J ,.<.>.;X=Xw.s.s.k k.N.K.L.P ,.3X<X-XS.K.K.:X5X5X:X<.",
"2.9.f.G 5 x C K <.-X-X-.=.:.K :.K.<.-X<.4.4.w.f.q.5 l Z N :.-XL.F =.1.=.G A K.-X4.<.<.w.d.p.M.4 j J :.-.,.4.;X:XI.K.L :.,.H.-X2.",
"&.8.f.L < h v N K :.,.:.,.L L J J :.:.=.*.*.8.f.e.5 h j N n ,.,.,.,.P P L J K >.>.$.*.8.g.y.6 1 j v M M #.$.>.P B V s } } %.#.2.",
" .X.i.G : 0 v s V a +.%.+. .V ..` u y  . . .o.i.u.1 : j v i } d } B M V d r t y | |  . .i.g.l : i a y w { | } }  .d w { s  .{ ..",
"( ( i.:.: . + * R U U o # o * # # X X T T W ( _ 5.: + @ - R W T U U U U # o U T U W Y Y _ 9.h . + & & & E E E R - * / / % * % ^ ",
"[ ] ..F v t p { ..r q ' w g u [ a y ` { y ` ] [ -.v t ` ` u y ` r r w r ' ] a q ] ` ' ] ' $.C t e ` y t y a u r { y } ] ' p t ` ",
"oX#XOXGXDXGXGXoX@X+X@X+XFXkX;.Q.}.XXVXoX#X|.|.$X{.VXDXVX|.|.oXHXSXFXFX4XW.[.}.JX|.|.#X#X#X{.DXAXBXZXDX|.JXJXLXLXwXW.].}.|.GXAXVX",
" XCXCXCX XXX|..XBXZXjXfXkXMX;.'.].}. X.X XBXCX XSXZX XXX.XCXSXDXCXFXUXyXQ.'.(.).AX|.XX XZXAXAX|.XXCXAXAXSXSXFXUXmXD.`.].}. X X{.",
"^.R.R.6XR.R.R.4X6X^.wXsXtXcX4.b.Z.C.E.R.R.R.R./.aXiXpXpX6X6X6X^.sXsXvXp.M.b.Y.C.6X~.E.8XE./.aXaXuXuXR.R.6X6XsXcXbXS c.C.D.R.^.!.",
"J.~.~.4X;.=XK.-X;X>X9XsXtXxX3Xx.Z.C.Y.I.T.E.E.~.8XR.uX7X5XH.:XT.qXtXvXrXM.v.C.Y.T.P.T.^.~.R.0X6X7X5XJ.J.:X6XqXcXbXz v.Z.B.J.4XT.",
"L.G.L.I.-X,.K G L.L.>X6.t.xX7.z.V.B.K.L.P K.S.J.;X-XJ.9X0X6X=XK.;X9XvXu.M.c.V.K.P.K.L.G.H.-XI.:X8X7X7X:XL.,X2XlXbXV.x.B.C.L.H K.",
"K D D K =.<.:XS.L ,.,X1Xt.zX<.2 M.A.K.L.P K N B =.K L ;X>X>XJ.-X3XeXlXy.v.v.N.K.P -XH D n J :.F ,.:X<X3XP.I.2XlXd.z k.V.K.P ,.:.",
"-XL K.I.-X:X:XL.G -X=X<Xt.bX<.k.k A.P =.:.P K.L L.I.L.=.=.,X:X=X<XeXlXt.7 v.A.L :.:.K L L.L.L.-XF P =X,XL.L.3XbXzXz > N.S.P P K ",
"K.G K.:X:X:X=X=XK.I.<X3XeXxX=Xk.k A.,.=.P K.K.S.L.:X:X:.=.,.:X-X<XeXlXt.7 5 z G >.,.L K.L.L.J.:X,.P L ;X;X,.w.a.s.N.> V.A P P H ",
"D.L n n P -X>X>XP.I.2X1XrXf.-.3 k A -X,.P.K.L J O.K ,.;X;XH ,.<X1Xw.a.t.v.3 Z L -XL.S.K.J n J ,.<X<.K.<.<.B *.p.zXx > x G -XP K.",
"L.:.#.V n =.>.;XK.K.4.5.t.f.-X3 l A :XI.P.L.:.$.M V F :.,.F =.5.5.e.a.t.6 5 Z P L.P.J.,.O.b V B >.>.G :.>.=.&.p.a.z > z S.-XL.L.",
"=.>.:.J L O.O.>.K.P 6.q.t.f.,.3 M.Z L G.L.,.>.>.A C D #.:.:.<.6.q.e.a.t.6 z.Z L.L.L.L.>.>.K L J =.#.J -.>.,.4.lXzXN.> z A L.K.L.",
"<X<X:XP.K.,.>.;XL.,.6.q.t.d.,.2 v.A.P L K.-X<.,XP.J.,.>.>.,.,.;.q.e.a.t.6 z.Z K.P K.,.;.;XP.P.-X,.:.P P <X-X;Xp.d.z k.z A L.G L.",
":X:XJ.Y.I.<X<.G L.,.6.q.y.d.<.x.l S.L.L L.;X>XT.P.I.>X,XH L P <.q.e.d.t.v.z.A.G K.G.=X>X>XY.P.2X;X-XF H ;X,.=Xp.bXz k.N.S.P L L.",
";.-X,.K :.<.,.L P 6.*.3.0.lX<.k.v.K.L.F.K.<.<.,.A P >.2X,XH.=.$.*.w.d.t.k 2 V.:XK.L.,.<.,.L P >.;X>X;XD :.=X3Xa.a.S k.V.H.L.P.G ",
"2.>.B V B ,.P P B *.2.5.rXf.<.2 v.D.=XP.L.;.1.F N B K -X:XP K K <.w.d.0.v.x.B.I.G.P.,.1.1.D n m ,.;X4.F P -X:Xy.lXV.k.M.K.P.D.L.",
"4.>.#.D S G.L.,.=.6.<.4.rXd.>.3 v.S.-XL.,.2.2.$.b n J -X<X2X:XH.-X0.d.0.6 2 V.L.L.P >.3.&.#.D K G.:X>XI.L.-X;Xy.lXN.x.M.L.L.L <X",
"<X4.,.H.S.S.H.<.;.;.;X4.t.f.;.2 7 Z H.L.,.;.<X<.I.K.S.P.:X2X>XJ.<X5.f.t.6 2 x P L.H <.5.;XL.S.A.G.:X>X4X:X;.6.p.a.x > k G P H >.",
"<.<X:XL.L C J K <.L.-.3.r.f.,Xx.6 S D ,.>.<.<X<XK.L C C F >.:.:.>.8.h.rX6 4 j v >.-.<.4.;X:XK.G N #.>.:.>.2.&.9.f.A.k.1 n F >.P ",
"%.%.#.#.d s a } $.:.%.8.9.h.;., 0 i s s d M #.$.B #.d a s M @.@.*.8.g.r.7 1 j g d s b #.$.#.V d s s } b +.*.*.o.g.z < j i p +.M ",
"d { | a a a y r ~ ] [ [ o.i.:X: 0 e t t y p } { { { y y r p y ` [ X.i.u.h 9 e y u a a { { { { { a t { y ' [  .i.9.Z 9 i y u y y ",
"# T Y U $ % & T o Y Y X ) _ >.  ; O X # W T T U # # # % # T T U U Y ( 8.0 . O # o # # T T T # % T # R # W W Q ( o.B . ; O @ # W ",
"#.m I } d m #.%.F B #.m m :.-X,.V M @.#.+.F D | I | +.b B M m #.@.O.D ,.-.K B #.B M m #.n b @.I B B D m F #.O.#.P P F B K K K B ",
"@XPXPXH.].*X&XOXHXJXHXOXOX@XOXOXOXOXHXIXOXIXIXPXH.Q.*X&X%X@X%XOX@X@XOX@XHXoXoX@XHXIXIXIXPXqXY.*X&X%XIXIX%X%X%XIXOXHXIXOXOXOXGXGX",
"sXkXmX:.`.Q.!./.).).).).fXfXfXdX).).gXfXgXhXPXmXeXn.n._._.).).).).dXdXgXdXgXfXfXBXZXhXFXMXrXM.`.(.(. XBXZXfXdXdX).fXfX X).dXgXhX",
"sXtXvXK b.C.C./.T.R.E.R.^.^.uXiXuX6XE.T.0XsXyXnX3Xl.b.F.Y.6X6XR./.R./.aXaXuX6XJ.E.R.wXqXcXbXv.l.C.Y.!.E.7X5X4XJ.R.E.E.E.E.R.6X7X",
"8XeXh.K.3 Z.Y.S.E.J.E.8XE.8X8X8X7X5X:XP.:X9XtXxXe.x.c.B.B.:XE.T.T.T.4XT.6X6X7X:X:XK.9XqXxXa.M.v.M.B.P P H.L.L.:X-XP L.P =X:X:X5X",
"w.rXj.F.4 c A L P L G G L.L.L.L.9X0X5XU.:X>XtXxXu.l.v.V.F.H S.K S.G L.,.=X5X5X0X:XG.,X3XxXp.6 v.Z.S.,.;.L.K.L ;.N n K :.,.<.,.-X",
"5.r.j.P 5 l n S P ,.P F =.,.L P =X>X>X=X,.2.r.h.4.k.1 Z L ,.P :.n J K :.H H.,X<XI.:Xw.2.lXrXk 5 j A P P L.P F #.P F P P ;X<.<.=X",
"8.9.f.P 8 h v J F ,.,.>.,.K J L J K >.>.&.8.8.h.5.5 1 g V d =.H -.-.:.L C C K :.1.2.*.8.a.s.x 1 j n D :.:.,.,.,.,.K C J K =.1.$.",
"| i.g.P 8 0 j w i | d %.+.} M y u ` ]  . . .o.g.0.: : } s e { } | b +.M s ` r { '  . . .i.g.x : j i s s | d M +.| d w r u [ a  .",
"Q ) i.P 9 + + R W W U T o $ # U $ $ T T R Q ( _ 4.: . O & $ W # & R U X # o R o E / T ) _ 8.l   + & % E W U o U o $ o R $ U T T ",
"` { | K g y t { w y w p p w y d ] u p y y y ' | H.v p q r r ` p r ] ..r ' ] { w y ] p ' [ O.L y s y r a { a y ` { u ] ' u r ] r ",
"|.VX{.BX XJX|.BXJXJXKXSXFXkX=XQ.&X$XoXOXOXoXoXDXOXGXSXGX@X@X+XHXJXFXFXT.!.[.}.oXKXGXOX#X@X{.VXSXAXNXVXOXJXHXGXLXqXW.].}..XKX{.GX",
"VXCX.XJXCXCXZXCX.XAXNXCXPXMX>Xn.].}.#XoXGX+X|.ZXNXCX XXX.X.XAXSXSXFXUXeXZ.'.}. XGXGX$XAXZX.XBX.XXXBXBXAXAXDXFXUXvXD.`.].(.dX).CX",
"E.E.uXsXpX/.^.R.6X6XsXsXtXvX4.b.Z.C.!.^.uX6X6X~.R.R.^.T.4XR.R.uXsXqXvXrXb.b.C.!.R.~./.0XE.~.sXsXuX7XR.R.6X7XsXmXlXz b.Y.Y./.^./.",
"R.~.~.J.aXiX5X5XU.L.5X0XtXxX3Xx.M.C.K.-X,X=X;X;XH.I.G.H.:X:XU.U.4XtXvXyXb.x.V.C.:X,.<.;XH.E.6XR.0X2X,XG.I.5XqXrXnXV.x.C.C.P.4XT.",
"P F.I.:XL.>X0X7X5XI.P 2XyXvX1.6 M.N.S.P -X=XL.:X:X:X-XK J P -XL.>XeXnXu.6 c.x G.H :X;X:XI.-X;X:X8X0X0XT.J.I.1XlXbXz v.F.B.L.G G.",
"K N I 7.m A >.-X:X,X,.3.e.zX6.k.6 z P L.-X;X:XJ.-XL.:X-.D L -.>.>.5.s.y.z.v.z S <.G.;X>XP.:X=.K L.:X2X,X=X=Xw.p.f.z z.c S.L.P L ",
"B P =.>.#.C w @.$.=.=.2.*.g.5.3 1 v M V m :.,.,.P K M V M +.:.G 2.3.g.rX5 1 v V n J B 7.-.:.K H J ,.<.<.<.1.8.p.lXl < j i V #.$.",
"{ @.b s a s f } | d | *.X.i.<X< 1 e f p { } } | } } a a d p | ....X.i.e.8 < i e f { { +.%.d d w i s | | | | X.9.g.z , j f f a ..",
"~ ~ ~ ~ = = * = = ~ ^ ^ ( _ 1.: + - - = ~ * ~ ~ ~ = = = ~ * ! ^ ^ ( _ q.0   @ = * % * ~ ^ E ! - & E T E E ~ ( ( i.n     @ * * = ",
"u E - ! ! = ! * = ! ~ ~ [ ( :.e @ & - * * = = ~ = ~ ~ = = = ~ ! ~ ] ^ *.i @ & - E - = ! ~ = ! ~ ! ! ! E * ! ^ ^ @.M e @ - * @ = ",
"gXhXiXL.!.}.).fX).fXdXXX).gX.XCX XgX/.).gX).dXkX>X!.(.).).XXXX)._. XdX_.).dXgX_.).dX).dXhX7XJ.}._.XXdXdXfX).).).).).gXgXjXdXfXCX",
"IXPXmXW.n.*X$XoX%XHXOXGXGXJX$XGX#XoXJXJXSXDXFXUXyXn.`.$X.X@X@XIXKXJXOXJXGXoX@XKXJXSXSXLXUXcXV.'.[.$XoXGXoXoX#X@XLXDX.X+X.XVXHXHX",
"sXyXnXG.m.C.Y.(.pXpX/.iXuXuX/./.pXR.R.6XsXsXwXmXeXb.Z.Y.Y.(.pXaXiX/./.uX/./.~.8XpXwXsXsXcXrXN.n.Y.Y.E.~.^.~.R.uXaXfX/.pXuX~.pXiX"
};
