/* XPM */
static char *fe492be3ba214701ba064811edf8fa5eDl2qUUwaOQkFSaIR[] = {
/* columns rows colors chars-per-pixel */
"32 32 141 2 ",
"   c #3A1D0F",
".  c #3C1C0F",
"X  c #3A1C11",
"o  c #3B1D12",
"O  c #3D1D10",
"+  c #3C1F11",
"@  c #3E1E11",
"#  c #3D1D12",
"$  c #3F1F12",
"%  c #3E1E13",
"&  c #3D1F14",
"*  c #3D2012",
"=  c #3E2113",
"-  c #3E2015",
";  c #3F2214",
":  c #3F2116",
">  c #402013",
",  c #412114",
"<  c #402015",
"1  c #402315",
"2  c #422215",
"3  c #412116",
"4  c #402217",
"5  c #432316",
"6  c #422217",
"7  c #412416",
"8  c #422517",
"9  c #442417",
"0  c #412318",
"q  c #432318",
"w  c #422419",
"e  c #432618",
"r  c #43251A",
"t  c #452518",
"y  c #442419",
"u  c #462418",
"i  c #442719",
"p  c #462619",
"a  c #45251A",
"s  c #44261B",
"d  c #47271A",
"f  c #46261B",
"g  c #45271C",
"h  c #47271C",
"j  c #48261A",
"k  c #49271B",
"l  c #45281A",
"z  c #46291B",
"x  c #46281D",
"c  c #472A1C",
"v  c #47291E",
"b  c #48281B",
"n  c #49291C",
"m  c #48281D",
"M  c #4A281C",
"N  c #4B291D",
"B  c #482B1D",
"V  c #4A2A1D",
"C  c #49291E",
"Z  c #482A1F",
"A  c #4B2B1E",
"S  c #4A2A1F",
"D  c #4C2A1E",
"F  c #4D2B1F",
"G  c #492C1E",
"H  c #4A2D1F",
"J  c #4C2C1F",
"K  c #492B20",
"L  c #4B2B20",
"P  c #4A2C21",
"I  c #4B2E20",
"U  c #4B2D22",
"Y  c #4D2D20",
"T  c #4C2C21",
"R  c #4E2C20",
"E  c #4F2D21",
"W  c #4C2F21",
"Q  c #4E2E21",
"!  c #4D2D22",
"~  c #4C2E23",
"^  c #4F2F22",
"/  c #4E2E23",
"(  c #4D2F24",
")  c #4F2F24",
"_  c #502E22",
"`  c #4D3022",
"'  c #4E3123",
"]  c #4E3025",
"[  c #4F3224",
"{  c #4F3126",
"}  c #503023",
"|  c #513124",
" . c #503025",
".. c #533125",
"X. c #503325",
"o. c #523225",
"O. c #513126",
"+. c #503227",
"@. c #533326",
"#. c #523227",
"$. c #543226",
"%. c #553327",
"&. c #513426",
"*. c #523527",
"=. c #543427",
"-. c #513328",
";. c #533328",
":. c #523429",
">. c #533628",
",. c #53352A",
"<. c #553528",
"1. c #543429",
"2. c #563428",
"3. c #573529",
"4. c #543729",
"5. c #563629",
"6. c #55352A",
"7. c #54362B",
"8. c #57372A",
"9. c #56362B",
"0. c #55372C",
"q. c #57372C",
"w. c #58362A",
"e. c #59372B",
"r. c #55382A",
"t. c #56392B",
"y. c #56382D",
"u. c #58382B",
"i. c #59392C",
"p. c #5A382C",
"a. c #5A3A2D",
"s. c #59392E",
"d. c #583A2F",
"f. c #5B3B2E",
"g. c #5A3A2F",
"h. c #5C3A2E",
"j. c #5C3C2F",
"k. c #593B30",
"l. c #5B3B30",
"z. c #5E3C30",
"x. c #5E3E31",
/* pixels */
"i.u.i.i.b @.i.5.i.j.^ 5.i.x.i.^ 5.w.w.w.h.x.i.$.5.i.h.i.i.i.5._ ",
"^ J ^ @.d J } ^ ^ ^ n n ^ ^ ^ d ^ ^ ^ D ^ ^ ^ n u M D D D ^ D n ",
"J d 5 d 5 d b n 9 d n 5 d d n b 5 9 d 5 5 9 d d d d d d 9 5 5 5 ",
"$ 5 d J ^ b 5 $ d 9 ^ d d d d J 5 d d d d b n J d d d n n n ^ @.",
"@.5.5.@.5.5.5.5.i.5.u.i.=.@.^ u.u.i.i.u.5.5.u.i.u.@.} @.@.^ ^ ^ ",
"5 b J n ^ J n n n b d ^ b n 5 b n n n n n n b d ^ n b n ^ ^ ^ J ",
"d 5 > . $ $ 9 d 5 5 > 5 9 d 9 $ 7 7 7 7 7 7 w w z z d d d 7 * $ ",
"5.^ ^ ^ @.n ^ ^ @.i.5.^ 5.5.u.d ` ` ` ` ` ` @.&.U ` ` ` ` ` G c ",
"G c G U z 7 z G z G z 7 z c z n n w w n n w w G G z G z z G c * ",
"z 5 : 7 w w d 7 7 7 z 7   7 c * d z w 7 7 w 7 : d 7 z 7 7 z d w ",
"-.^ U ( ] -.-.( :.:.:.5.:.] ( :.-.5.:.] ] :.-.U ^ ] :.-.-.:.:.i.",
"U U ( U c K U U K U n U ] c w ^ n c c c c n n c d n ( ^ ^ K g ( ",
"w g c w & : w w : : 0 : X w g X g c c g d g n U w g c c c 0 X w ",
"( ( ( U c U ( U ^ ^ U K U ] @.U c ] ] n g U ] ^ c c n n K c w n ",
"^ U U K c K U U U U g n @.U g @.n ^ ] K n ^ ^ ^ ^ K ( @.@.@.@.@.",
"g w g d : : w d d 5 w c w w c d 0 5 w g g d d g 0 5 g g 0 d 5 $ ",
"n J n ^ ^ n J J n G ^ w w G w d ^ ^ ^ ^ ^ n n n b n J b d @.=.n ",
"5.5.@.=.@.J ^ } ] @.5.&.&.:.^ @.@.@.5.5.5.5.=.5.^ } =.=.@.=.@.n ",
"n n b n n 9 b n U c c n G n z ` c c G U U G G U w d z z z w d n ",
"$ $ $ d d 5 9 d c 7 * : 7 7 : z : * * * $ $ * : w z 7 7 w 7 d @.",
"-.5.5.i.i.-.5.q.y.y.:.5.l.i.q.:.r.r.r.5.:.&.:.:.] :.&.@.&.] ] r.",
"T ^ n K n d n n n U g c U ^ ^ n G ` ` ` ` ` U G c G U G G G n G ",
"d g 0 5 5 5 d 0 : w : : 5 : d w X * 5 5 : 5 5 : 7 * * 5 : 5 7 7 ",
"( 5.@.@.( ^ @.^ U :.@.:.-.U ] ] U ^ ^ G G ^ ] ] ] n U &.] ` ` ^ ",
"^ n n n ^ K n n w U ( d c ( c ^ G ` ` ^ ` G c ` ` c d c G c c G ",
"K K n n d 5 d n 0 d g 0 w c w w : 7 5 5 7 * $ 7 7 7 7 7 w d 7 * ",
"$ $ 5 d n n n n ^ ^ U ^ U U ( K ^ ^ n n ^ J n n @.5.u.5.5.i.=.J ",
"l.i.i.i.i.q.@.( -.:.:.q.] U q.:.=.@.@.@.@.@.^ ^ @.5.5.@.@.5.@.n ",
"b n n n d d n ^ c G G ` c 7 ^ G n n b n n n n d n n n n n n n d ",
"d n d d 5 5 d d * : 5 d w 7 7 * 9 5 9 d 9 d d 9 5 5 > 5 5 5 9 d ",
"@.@.@.@.@.=.@.^ &.&.:.&.r.r.@.@.@.$.5.5.@.$.w.$.w.w.5.w.w.w.i.i.",
"^ } @.^ n n ^ } G ` ] c G ^ c ` D D _ ^ j j D j ^ _ _ ^ ^ ^ D n "
};
