/* XPM */
static char *wall31701018975[] = {
/* columns rows colors chars-per-pixel */
"64 64 189 2 ",
"   c #5E534C",
".  c #5D594E",
"X  c #5C5554",
"o  c #5D5955",
"O  c #58575D",
"+  c #5C5B5A",
"@  c #62554C",
"#  c #63594D",
"$  c #6B5C4E",
"%  c #635B46",
"&  c #705F4F",
"*  c #635652",
"=  c #645B54",
"-  c #6C5E53",
";  c #655D5A",
":  c #695E5A",
">  c #705F57",
",  c #5D6059",
"<  c #666055",
"1  c #6D6355",
"2  c #65625D",
"3  c #6D635B",
"4  c #726254",
"5  c #73655B",
"6  c #746A5D",
"7  c #7B6A5D",
"8  c #77705D",
"9  c #665D60",
"0  c #685F60",
"q  c #656364",
"w  c #6B6663",
"e  c #6C6966",
"r  c #666569",
"t  c #69666A",
"y  c #6C6B6B",
"u  c #706566",
"i  c #746A63",
"p  c #7B6D63",
"a  c #736D6C",
"s  c #796E6B",
"d  c #767165",
"f  c #7B7165",
"g  c #76716D",
"h  c #7C746B",
"j  c #6D6E72",
"k  c #716E71",
"l  c #6E7175",
"z  c #747374",
"x  c #7B7673",
"c  c #7C7975",
"v  c #767579",
"b  c #79767B",
"n  c #7C7B7D",
"m  c #8A6F5C",
"M  c #847364",
"N  c #8C7762",
"B  c #82756A",
"V  c #8C7669",
"C  c #83786D",
"Z  c #8A7B6D",
"A  c #927762",
"S  c #807770",
"D  c #837A73",
"F  c #8C7D73",
"G  c #817C7C",
"H  c #8B7E79",
"J  c #927F79",
"K  c #8D826E",
"L  c #8E8175",
"P  c #83827E",
"I  c #8D837B",
"U  c #908274",
"Y  c #988976",
"T  c #93857B",
"R  c #99877A",
"E  c #96897D",
"W  c #9A8A7D",
"Q  c #757B84",
"!  c #7C7D82",
"~  c #807D82",
"^  c #7D8086",
"/  c #7E818A",
"(  c #7F8993",
")  c #858484",
"_  c #8A8685",
"`  c #868886",
"'  c #8B8986",
"]  c #85858A",
"[  c #89878A",
"{  c #86888C",
"}  c #8C8B8C",
"|  c #928581",
" . c #948B84",
".. c #9C8D82",
"X. c #928D8C",
"o. c #988E8A",
"O. c #8E908D",
"+. c #969287",
"@. c #989187",
"#. c #94928E",
"$. c #9B948D",
"%. c #9C998E",
"&. c #868792",
"*. c #8A8790",
"=. c #868B94",
"-. c #8C8D92",
";. c #808799",
":. c #868E9C",
">. c #8A8E9A",
",. c #918F92",
"<. c #988F90",
"1. c #8D9195",
"2. c #85919A",
"3. c #8C939C",
"4. c #8B989E",
"5. c #939294",
"6. c #9A9593",
"7. c #969896",
"8. c #9D9995",
"9. c #94959B",
"0. c #99969B",
"q. c #95999D",
"w. c #9B9A9C",
"e. c #A09081",
"r. c #A2978E",
"t. c #A3988E",
"y. c #A19693",
"u. c #A39B94",
"i. c #AA9D95",
"p. c #A09798",
"a. c #A29C9B",
"s. c #A99F9C",
"d. c #B09F97",
"f. c #B19E98",
"g. c #A6A195",
"h. c #ABA196",
"j. c #A4A19D",
"k. c #AAA29B",
"l. c #B3A59C",
"z. c #B4AA9D",
"x. c #B2A295",
"c. c #8A8FA3",
"v. c #8692A0",
"b. c #8D94A2",
"n. c #8E9AA5",
"m. c #8E99AB",
"M. c #9296A3",
"N. c #9C97A3",
"B. c #949AA4",
"V. c #9B9CA3",
"C. c #9397A9",
"Z. c #9B96AA",
"A. c #949BA9",
"S. c #999DAA",
"D. c #959CB1",
"F. c #A39EA2",
"G. c #A19DAB",
"H. c #94A0A7",
"J. c #9DA1A5",
"K. c #96A1AD",
"L. c #9CA2AC",
"P. c #95A1B1",
"I. c #9CA4B3",
"U. c #9DA8B5",
"Y. c #A3A2A3",
"T. c #ABA5A3",
"R. c #A7A8A3",
"E. c #ACA9A4",
"W. c #A2A3AA",
"Q. c #A9A6A9",
"!. c #A4A8AE",
"~. c #AEA9AA",
"^. c #B2A6A2",
"/. c #B3ACA4",
"(. c #B8AFA6",
"). c #B2ADAA",
"_. c #B8AEAF",
"`. c #B7B1A5",
"'. c #B9B1A6",
"]. c #BBB3AC",
"[. c #A3A4B2",
"{. c #ADA7B5",
"}. c #A4AAB4",
"|. c #AAABB0",
" X c #A6ADBC",
".X c #BFB8B2",
"XX c #BCB4B1",
"oX c #C4B4A7",
"OX c #9CAEC2",
/* pixels */
"S.U.v 3 E.B.V.A.w.q.q.q.-.5.0.9.q.5.>.>.S.M.0.M.#  .q.0.A.9.q.q.1.=.>.-.q.N.q.w.q.:.M.B.S.: C V.q.S.q.3.>.-.3.M.B.B.M.3.>.3.N.A.",
"q.P.b - Y.q.J.V.9.=.-.*.&.>.7.3.1.9.7.N.N.C.S.H.@ X.w.N.J.1.1.-.-.3.9.9.1.*.-.5.5.q.V.B.L.2 L J.1.N.N.0.q.B.S.V.B.0.q.3.>.=.3.B.",
"B.K.n - w.q.w.9.9.>.-.*.*.>.>.-.) } } 5.=.3.5.1.. o.w.N.V.5.5.5.} ,.,.,.} P ] } ' 1.N.5.q.< Z Y.9.9.7.1.} 5.V.w.3.3.q.B.M.-.-.q.",
"V.K.G - u.q.w.7.7.0.0.9.5.5.,.*.] } { -.5.9.9.&.# o.8.q.0.1.6.0.1.7.,.9.5.` } } ) 3.7.>.B.= Z j.0.7.5.5.*.} 7.5.} *.5.0.q.5.>.q.",
"F.A.c 1 a.0.w.q.X.X.7.9.5.-.O.5.-.*.{ 5.7.>.q.-.# o.a.w.w.} X.<.$.6.' 5.7.-.,.*._ 3.,.,.B.; F Q.9.7.-.} X.} X.5.7.5.-.} -.5.1.w.",
"V.S.c & j.0.8.6.P } X.5.-.} } 6.-.&.] ,.9.&.M.>.@  .p.0.7.} _ } ' ' ) [ *.-.-.*.} 0.,.9.B.= Z Y.5.0.} ~ [ } ,.7.V.8.5.} } 9.5.q.",
"0.L.c - j.9.0.5.P ' ,.5.-.] ] 5.0.-.{ w.N.-.B.5.#  .8.7.5.^ ) X.[ ' ` [ } -.-.*.5.w.5.B.q.= F F.9.7.,.,.5.,.5.} <.5.7.} 5.0.-.5.",
"5.L.v - j.q.w.} ) } 5.9.9.] ) ,.0.,.) 7.9.5.7.} @ +.8.0.#.) ` X.9.-.} ] -.#.} _ P 1.,.0.7.= K w.0.-.-.9.5.} } _ _  .$.} 5.7.{ -.",
"*.K.g & 8.7.6.-.] *.5.0.#.) O.7.w.' ) 5.B.,.,.} # o.6.9.5.{ ` 7.5.5.[ ] 9.w.,.` { 0.7.-.1.< Z w.5.7.} 1.0.} *.*.=.] ,._  .6.] &.",
"5.L.z 1 8.5.9.*.] *.O.5.} ` 5.0.O.} O.w.0.7.9.] @ T 5.9.q.1.*.#.5.X.} ,.V.w.-.<.,.0.5.-.-.o F Y.0.5.1.} 1.-.-.=.q.-.-.~ _ 5.-.5.",
"9.I.z & 8.9.q.7.-.7.5.} ` } 7.0.{ } 5.w.9.,.5.{ # | 6.0.q.0.5.' X.' ) } 7.*._ 5.5.9.,.5.1.* F F.0.-.-.} 5.5.-.5.7.7.,.] ] w.0.-.",
"9.K.z $ 8.9.0.q.5.5.} } } } 5.5.} } 5.5.[ } 5.=..  .0.w.q.5.} _ P ' ) ) X.[ ) X.X.} X.q.q.: F F.9.&.*.5.q.5.} X.X.,.,.&.&.-.5.*.",
"0.I.x 1 8.9.7.8.} } } -.5.5.5.6.-.5.5.' ) ,.V.=.#  .6.7.0.1.G _ } #.5.X.6.5.} X.} } } 7.q.= F F.w.5.} 9.7.[ ` _ X.} } 3.&.^ ] } ",
"0.L.x - 8.0.8.q.O.' } 5.5.5.} ,.} ] _ } ] 9.F.-.*  .6.5.0.,.n ` 7.6.O.+.#.} } -.} } } 9.3.* Z Y.V.0.} 5.5.) ~ P _ } 7.q.1.{ } 1.",
"6.L.x 1 u.J.8.7.5.} } X.} _ G ' } ` { ,.5.7.w.5.@ | p.6.7.9.` } 5.} ) P _ } } } } 1.5.w.B.= Z Y.j.w.5.5.-.} } } _ X.j.w.6.q.0.5.",
"w.W.x & u.w.6.6.5.-.5.,.} }  .6.8.0.0.0.0.V.w.5.#  .E.a.5.7.} 5.{ ) ' } #.0.J.7.#.5.5.q.S.< Z E.8.w.w.7.7.Y.7.0.q.#.8.w.5.5.q.w.",
"8.a.C 3 i.u.k.#.a.a.w.+.0.a.+.0.$.8.s.j.6.$.a.a.# $.j.T.w.0.V.w.t.8.8. .%.8.j.$.8.w.6.8.Q.: H l.i.X.X.p.6.o.<.6.I o.@.$.$.r.$.u.",
"s.k.D i z.l.k.k.i.s.g.u.T.u.t.y.u.a.8.a.6.T.~.a.& ..x.l.l.i.g.t.j.Y.Q.u.i.p.F.u.u.k.E.E.k.3 J oX`.g.g.g.u.8.%.%.k.6.y.y.#.j.8.u.",
"h h 6 = h p B x h a h d x h U C p B h B p Z C 6 & M D B B f f d h h c F F B a M f C h D h : 5 C D B B B h B B B Z F M C h h h x ",
"t 2 e g g a a q w y y e k : $ 3 y a a y q q q q y q t q q q y y w z 2 # 4 w a i w e w q e y w w t q 9 q t t y j # 5 5 a a 3 w u ",
"A.B.q.&.q.B.B.N.q.I.M.B.}.&.; p.L.B.S.b.3.b.B.B.3.:.:.M.v.S.b.M.[.A.[.9 G |.M.S.V.1.q.M.S.M.M.c.3.:.3.b.A.M.K.U.k y W.N.S.I.n.S.",
":.2.C.v.b.b.M.3.b.c.v.M.D.! X a.M.q.N.-.9.>.M.>.3.>.:.b.>.3.3.M.M.m.S.+ P S.b.M.b.;.3.:.n.3.:.( >.:.>.5.B.q.M.I.z y W.B.A.M.;.;.",
"-.;.1.1.3.1.q.*.5.:.A.H.C.{ < $.3.b.S.3.b.v.3.v.5.3.=.=.&.} 3.0.3.4.9.. I q.5.V.3.>.M.-.>.>.M.M.4.3.1.2.1.3.4.H.3 s 6.,.F.9.,.#.",
"5.0.q.} 6.` } 6.} 7.5.} G.) @ r.8.#.5.#.5.5.5.F.3.M.q.-.&./ &.-.b.n.N.  I F.9.0.-.} 7.q.V.7.9.5.=.,.*.*.5.B.B.N.i i Y.N.5.B.5.-.",
"#.} 8.#.#.` ~ X. .5.3.} =.^ = r.0.,.5.-.} -.} 0.O.O.1.7.q.-.] -.q.B.0.X I Y.7.9.q.1.#.6.6.O.} } *.5.} } ] 1.3.V.q p k.B.5.#.#.' ",
") ) } ` } { ] [ ,.M.9.1.q.P $ y.V.9.5.} } X.,.0.{ ] *.q.5.-.] 5.-.3.-.* I R.9.0.O.} } } #.1.} { 5.7.-.5.} q.9.H.t p T.B.q.#.-. .",
"` 1.5.5.5.-.-.*.) 9.-.1.B.G - y.V.9.5.` ) ' ,.6.0.5.-.*.] -.*.&.-.9.-.= I Q.9.6.} ` ) ' } 5.-.*.-.{ ` ,.} q.9.q.w p s.B.q. .] } ",
"[ 5.9.w.0.] *.} ) B.-.5.B.b * i.w.7.5.[ ) ' } o.8.6.,.} ] 7.q.-.,.B.,.* T F.0.,.' } ' } 5.#.5.6.} ` } 5.*.7.N.V.w M s.B.7.[ ) [ ",
"X.X._ 6.8.5.6.,.} G.0.9.B.n @ y.0.7.5.} ' } } } ' ' ' 8.O.5.7.7.,.9.,.  | 8.q.5.*.-.-.5.X. .#.6.7.X.,.5.} -.0.q.w 7 g.M.0.} [ ,.",
"5._ x ) [ X.X._ _ B.7.5.9.G - u.0.0.5.,.X.} } } P _ ) #.O.} X.} ,.9.9.   .0.w.,.*.-.-.1.} P ' ' X.} } 5.} } 5.B.u p k.M.7.} *.0.",
"5.} G [ [ [ } _ ) 2.5.X.-.G # u.0.7.} } X.-.-.*.` } ) ) ) #.5.1.,.9.X.   .w.q.} { 5.-.} ] ) } ) } ] } <.-.} 7.L.y f k.q.,.} -.5.",
",.[ ] 0.5.-.} ,.6.0.0.5.1.c @ u.0.9.} } -.} 1.} 5.0.{ } ` } 1.0.X.,.] @ | Y.w.[ ' 5.-.*.{ -.7.{ } } } 5.5.*.-.J.w p k.9.}  .>.5.",
"5.5.} 6.w.[ ~ 5.5.7.} 7.9.x = t.0.0.*.-.,.[ } #.6.0.5.} } 5.6.1.} 7.}    .Y.0.-.` O.7.5.} X.8.5.] [ } X.} O.5.N.: d k.B.,.} } w.",
"} ,.X.6.8.} ) ,.6.5.' 5.q.n - t.N.7.] } 9.5.} X.X.5.,.1.-.1.1.-.' 3.} X E a.A.-.} 5.5.-.} } #.#.-.} [ ' } -.q.S.i d j.Z.5.] 5.5.",
"} ' ' _ X.X.} X.O.{ ] O.N.) = %.w.q.-.-.5.,.-.} ' X.} 1.-.-.-.-.<.5.5.  I a.J.1.-.0.1.*.} } _ } 5.} ` ] { 1.9.J.w i k.G.0.{ N.5.",
"} _ G G ) 5.7.1.` ] 1.7.S.) . r.w.7.} *.5.,.*.) ) } } 5.5.1.5.5.,.q.0.o E j.J.7.5.5.-.*.} ) ) ' #.,.} { -.1.9.w.w i T.V.w.} 9.*.",
"5.} [ X.5.0.w.7.} } 0.6.G.) # i.j.w.6.5.7.5.,.] O.6.5.7.7.5.7.7.5.B.9..  .j.w.j.8.7.9.5.} _ X.X.+.5.5.5.9.9.q.w.a 6 T.N.R.w.0.7.",
"w.7.6.0.7.8.w.w.a.0.8.5.G.) = h.a.j.a.8.6.X.6.X.#.#.#.$.6.#.6.7.8.F.7.* W k.7.s.u.6.6.6.#.} $.X. .X.#.6.5.7.0.j.a 7 /.F.j.a.6.j.",
"6.6.6.$.o.o.$.6.a.a.u.%.Q.) 1 d.T.u.$.$.@.$.6.X. .X.o.+.$.$.g.j.8.Y.V.4 ..(.8.$.%.$.$.$.#.+.o.@.+. .$.$.8.8.a.j.i 8 '.T.6.@.#.6.",
"i.u.$.r.r.u.r.r.p.i.g.u.).I % i.].z.i.u.u.%.i.8.p.i.y.y.%.%.8.u.g.T.a.- U ]./.k.u.h.8.8.j.w.u.p.y.u.t.u.u.$.y.k.s 8 z._.k.g.k.8.",
"4 w 7 A 5 3 5 5 5 3 3 6 3 - - - 6 5 6 5 5 4 i 4 N 7 3 3 5 1 1 3 5 : 5 - - i 5 5 5 i > 5 u m m w 5 3 5 3 1 3 1 5 - - 1 5 4 3 5 4 ",
"G Q t : z ^ ^ n b b v v v b b b l l l z b ! ! l - s G ! ! n b v b z b ! v v j j k v v ! Q ; 5 ! ! n v v b b ! ~ b n ! ! v v ! ! ",
"A.OXQ : J.U.b.U.b.M.v.3.b.S.C.b.n.n.M.b.S.K.U.P.= 5.}.S.A.B.M.C.A.n.C.n.v.v.n.n.A.D.S.[.U.r G  X[.I.A.S.S.C.A.M.A.n.n.A.S.I.A.m.",
"M.P.) 4 a.B.B.B.=.3.2.:.2.3.2.( =.2.M.A.M.:.M.M.. 8.W.3.M.M.4.v.=.2.b.b.3.b.>.2.3.b.9.M.L.; H ~.3.B.q.A.A.b.A.M.1.q.3.>.3.3.3.M.",
"q.S.I 4 i.5.0.0.5.3.9.q.5.3.1.>.1.&.{ 5.N.9.N.3.# r.6.3.V.B.-.>.1.1.5.B.w.-.{ { 7.N.w.9.L.= U w.q.V.7.5.} } 5.*.6.0.7.5.-.} -.7.",
"3.}.n # T.V.7.B.,.5.0.0.0.5.3.7.3.-.^ / 1.3.H.3.@ p.8.0.F.,.-.5.q.q.3.q.9.>.1.=.] 2.B.M.B.o I V.5.6.,.} } } 7.5.} ,.} 5.5.1.-.1.",
"7.S.c $ g.J.a.*.} } 1.5.-.*.} } 1.q.1.1.B.q.J.-.  y.w.w.0.{ X.-.{ 7.-.*.1.3.9.=.{ 3.N.B.A.o C F.V.0.7.,.1.} ,.*.) ` *.,.*.{ 5.B.",
"8.!.c & 8.w.i.6.7.5.#.O.' } O.#.J.j.5.0.Y.0.w.} $ u.j.j.Q.6.#.P _  .'  .6.6.w.w.<.0.6.w.H.5 V k.Y.7.5.9.5.5.} 7.X.X.6.a.w.0.w.0.",
"V.T.I 3 s.$.T.6.a.s.8.a.6.#.8.8.6.i.8.$.8.8.a.u.. u.^.6.6.$.6.6.$.0.5.y.$.8.j.$.w.6.F.a.k.w D k.a.j.w.a.8.0.w.8.6.%.a.p.i.u.8.i.",
"T.^.H 4 l.x.l.s.8.8.j.a.k.j.#.g.E.p.s.a.s.s.E.o.$ r.oX(.k.y.u.u.i.k.j.u.r.u.s.i.k.%.i.E.i.6 Z z.h.l.h.h.r.r.h.k.8.%.k.w.j.8.Q.j.",
"h C 1 & M M B h h x f d h f L V h d d d h h h 6 - 6 B D x B D s h g c V D h z h h h f C f = 5 B B B f f p i s s D K B B B f g x ",
"q t t k q r q r 2 w w a a = 5 5 e g u w w w a e h e e w w w w q e a q # 5 a x s t y q t t a k 9 r w y y y y j j - 4 5 u 6 e 2 i ",
"b.M.v.M.b.b.2.n.A.n.K.I.}.>.O 5.[.S.Z.S.M.C.[.M.3.3.q.M.B.N.B.L.V.U.J.w ' !.}.V.S.S.A.S.M.M.M.c.b.M.S.S.A.A.I. Xc e W.D.H.n.m.2.",
"1.3.-.=.=.1.1.3.>.4.n.n.A.1.o 8.A.M.C.M.C.n.C.3.n.M.:.3.M.n.c.b.M.v.H.+ ' }.b.M.H.M.B.3.4.:.:.3.:.3.3.3.M.M.n.S.j q [.C.B.n.v.2.",
"9.>.9.M.2.>.3.&.} 0.w.B.9.) = E 3.H.q.5.V.1.-.3.=.3.1.7.q.=.,.b.A.:.q.o  .L.3.S.q.q.q.O.5.q.9.2.>.&.{ } N.V.B.S.i p a.9.7.N.-.V.",
"5.S.3.q.H.q.-.&.} &.b.b.K.] X y.7.w.9.-.*.] } } 5.5.) } } [ 5.5.M.B.7.  T 8.V.V.} *.} } } 7.q.9.3.1.] ^ -.q.1.L.2 d V.0.B.9.,.7.",
"` 7.0.*.O.7.V.F.-.1.>.S.V.] + $.w.V.9.5.9.*.] -.{ ,.*.{ -.5.0.q.B.0.7.+ [ Y.V.0.-.q.} ] ;.1.1.5.3.5.-.{ -.q.B.B.2 x j.Y.V.6.-.5.",
"o.o.0.6. .u.y.5.$.6.8.8.a. .@ t.8.Q.T.#.8.6.8.6.6.6.6.p.$.#.6.p.7.6.u.* E ^.s.T.Y.y.$.7.F.X. .5.w.w.0.5.0.w.w.Y.p i T.a.F.F.p.6.",
"+.6.8.,.#.8.' u.6.7.w.7.j.X.# g.E.i.p.6.a.o.6.6.#.X.5.6.6.o.#.5.w.6.8.= #.).6.8.#.%.%.#.8.+.+.6.y.a.8.8.8.8.8.a.f i `.u.#.#.8.+.",
"w.#.8.6.8.8.8.%.j.8.j.a.j. .= i.].E.y.y.8.8.8.6.#.8.8.6.#.$.s.T.j.Y.8.=  .oX).y.s.%.a.F.a.8.%.a.w.j.a.w.Y.j.Y.Q.p g XX).j.j.j.j.",
"T L R ..T F T L L F F H T B & Z ..W R T H T E L Y R J T L F L F I L Z 5 M W W E E F L | L Y T J L L D F I I I T 4 4 R ..E T T L ",
"X ; * 5 : : 3 o ; : = ; 2 2 3 3 = X ; * : * 2 X 4 4 * ; 2 = = : : = = u : o o : # = 3 2 # % 1 - 3 3 < = < = = = 6 : = : = . = = ",
"K.L.l t N.L.n.K.:.M.b.2.4.3.M.4.4.n.n.2.b.B.K.2.X ) B.S.B.4.b.M.b.M.3.M.>.M.M.v.v.3.c.D.b.q b S.A.S.M.3.b.b.v.b.:.:.:.v.b.:.M.C.",
"D.H.) 2 Q.G.C.C.M.A.M.b.M.3.3.b.M.M.q.M.b.4.n.S.* ,.F.M.b.A.S.M.M.3.b.9.M.A.3.A.3.3.v.C.W.+ c {.3.M.3.:.>.2.M.b.:.:.b.:.q.2.H.b."
};
