/* XPM */
static char *_9dd55b21f25429584db64f8d160d700U7rsOMSYg2EURMFA[] = {
/* columns rows colors chars-per-pixel */
"64 64 206 2 ",
"   c #060000",
".  c #0B0100",
"X  c #0E0802",
"o  c #120400",
"O  c #190603",
"+  c #140A04",
"@  c #1A0B05",
"#  c #150D09",
"$  c #1B0E09",
"%  c #161006",
"&  c #1A1007",
"*  c #14110C",
"=  c #1D120C",
"-  c #1D180F",
";  c #1D1511",
":  c #1E1811",
">  c #200E07",
",  c #230F0D",
"<  c #23140D",
"1  c #231511",
"2  c #291713",
"3  c #251A14",
"4  c #2A1B15",
"5  c #231E1A",
"6  c #2B1E19",
"7  c #301B16",
"8  c #311E1A",
"9  c #292017",
"0  c #27221D",
"q  c #2D221C",
"w  c #33241D",
"e  c #38261F",
"r  c #2D2522",
"t  c #2C2B26",
"y  c #342621",
"u  c #392721",
"i  c #352924",
"p  c #3A2B25",
"a  c #342D29",
"s  c #3C2D29",
"d  c #3D322C",
"f  c #3A3027",
"g  c #3B2F31",
"h  c #3E3531",
"j  c #3D3A35",
"k  c #412E26",
"l  c #412E29",
"z  c #43332D",
"x  c #48352F",
"c  c #443632",
"v  c #493732",
"b  c #463A34",
"n  c #4B3B35",
"m  c #453D3B",
"M  c #4C3D39",
"N  c #513D36",
"B  c #513F39",
"V  c #4D413C",
"C  c #484139",
"Z  c #53433D",
"A  c #59453E",
"S  c #5D493E",
"D  c #554642",
"F  c #5A4643",
"G  c #564943",
"H  c #5B4B45",
"J  c #564E48",
"K  c #5C4D49",
"L  c #56514C",
"P  c #5D524C",
"I  c #5A5046",
"U  c #5E5953",
"Y  c #5F5651",
"T  c #614C45",
"R  c #624E49",
"E  c #6A4F4B",
"W  c #63534C",
"Q  c #69544D",
"!  c #655551",
"~  c #6A5651",
"^  c #665953",
"/  c #6C5B54",
"(  c #655D59",
")  c #6D5D59",
"_  c #725C55",
"`  c #735E5A",
"'  c #696057",
"]  c #6D615A",
"[  c #716157",
"{  c #74635C",
"}  c #7B645D",
"|  c #7D695F",
" . c #756561",
".. c #7B6661",
"X. c #756963",
"o. c #7D6A64",
"O. c #7C6E69",
"+. c #776C68",
"@. c #7D726B",
"#. c #7C7773",
"$. c #816B5F",
"%. c #83605C",
"&. c #816762",
"*. c #826B65",
"=. c #896B66",
"-. c #836E69",
";. c #896E6A",
":. c #847166",
">. c #887066",
",. c #84726C",
"<. c #89726C",
"1. c #86786F",
"2. c #8C7C6F",
"3. c #857571",
"4. c #8B7671",
"5. c #857972",
"6. c #8C7B74",
"7. c #8B7E79",
"8. c #937772",
"9. c #927B75",
"0. c #947E7B",
"q. c #8C827B",
"w. c #8A8077",
"e. c #94837C",
"r. c #9A837D",
"t. c #94897E",
"y. c #8D8582",
"u. c #938581",
"i. c #9C8681",
"p. c #958A84",
"a. c #9C8B84",
"s. c #968D88",
"d. c #9D8D89",
"f. c #9E928B",
"g. c #9F9186",
"h. c #9F9892",
"j. c #A48783",
"k. c #A48B85",
"l. c #A98D86",
"z. c #A58E89",
"x. c #A98F8B",
"c. c #AC8E8C",
"v. c #AA8E8A",
"b. c #A49087",
"n. c #A5928C",
"m. c #A9918E",
"M. c #AD938F",
"N. c #AB928C",
"B. c #AF998C",
"V. c #A69590",
"C. c #AA9591",
"Z. c #AB9690",
"A. c #A59993",
"S. c #AC9B94",
"D. c #AB9D98",
"F. c #B19691",
"G. c #B39B95",
"H. c #B49E99",
"J. c #BA9E9A",
"K. c #AEA097",
"L. c #ADA29B",
"P. c #B3A49D",
"I. c #B8A39E",
"U. c #B2A89E",
"Y. c #B5A5A1",
"T. c #BAA6A2",
"R. c #B5A8A3",
"E. c #BBACA5",
"W. c #BCADA8",
"Q. c #BDB2A7",
"!. c #BDB1AB",
"~. c #C1ADA7",
"^. c #C1AEAA",
"/. c #C0A7A3",
"(. c #C3B3AC",
"). c #CAB3AF",
"_. c #C6B5AB",
"`. c #C5B6B2",
"'. c #CAB7B1",
"]. c #C6BAB3",
"[. c #CCBBB4",
"{. c #CBBEB9",
"}. c #C6BDB8",
"|. c #D2BEBA",
" X c #D1BEB7",
".X c #CEC2BA",
"XX c #D3C3BC",
"oX c #DAC6BE",
"OX c #D6C8BF",
"+X c #D2C1B7",
"@X c #D3C4C1",
"#X c #DBC6C2",
"$X c #D7CAC2",
"%X c #DBCBC4",
"&X c #DCCEC9",
"*X c #DBD0C7",
"=X c #DED1CB",
"-X c #E1CEC7",
";X c #E2CEC9",
":X c #E3D3CC",
">X c #E8D6CF",
",X c #E6D8CF",
"<X c #E5D7D1",
"1X c #E7DAD3",
"2X c #EBDBD4",
"3X c #EDDFDC",
/* pixels */
"x.x.m.~ _ 7 8 0.4.-.=.*.=.=.%.=.=.,.,.-.q > ..m.j.l.j.c.j.v.z.z.j.c.v.z.x.x.x.i.H x O O.u.+.^ c . ^ P.a.m.m.N.l.m.k.n.a.s o g m ",
"C.C.m.~ F < < ~ o.4.-.-.<.;.8.=...../ H < 2 W z.M.c.c.c.j.k.k.x.v.j.x.v.i.z.z.z.` p O v G D V s o u.S.b.n.z.m.z.j.z.C.u.3 3 + . ",
"n.6.-.K M < $ i c V H W H A A v l k u 8 o y H ` 4.i.z.j.M.M.x.C.m.m.m.C.C.z.a.i.K w o i z i p o D L.a.n.Z.k.z.x.m.r.z.4.4 . ; r ",
"s w y y 6 + # - q y 9 i w i w w e u w < o 4 n c v c Z R R Q ` Q W Q H F H W H v c 1 $ $ X . + + d W H Z V Z A A n Z B Z @ 6 R.}.",
"< 1 = # + + # . X 3 - % + X o . . o . . .     X + = 1 < $ = = @ @ $ + < @ < < 2 < + . @ 3 3 = X o o 3 2 4 w 2 < 2 4 6 $ . f.].q.",
"(.!.Y.Y.R.U.A.q.V . % 4 d C I W / ~ ) +.O.@.U L a +   . o + + 4 q w p < 3 + < 3 4 3 w p.XX(.E.U.e./ Z z w 2 < 6 $ o w z / f.] W ",
"C.a.e.6.,.O.@.) 6 { [.$XXX%X-XoX#X|.#XXXE.!.L.s.G = ) d.P.W.`.{..X{.b.e...3 E.{.(.{.$X%X.X(.E.~.[.OXXXXX.XXX}.R.i b S.6.,.Q W [ ",
"W R ! W W ! F 2 o Y.m.r.m.i.9.&._ _ T F H n M d . D 3XXXW.P.r.0.@.{ ) ^ q q [.e.e.6.6.<.{ Q _ Q ~ ~ / { -.,.O.D o Z 7.W Q _ { _ ",
"~ ` / ~ ` / x $ , (.9.r.v.c.c.v.z.i.r.<.{ / P b X G q.] ) ^ W ~ / ) ] Z 2 u OX6.~ { { Q / _ _ _ ` / _ / ! K v M @ p T.,.,.-.-.<.",
"/ / ~ / ~ R p o w ).G.Z.M.M.c.c.M.M.m.M.C.n.6.s . G @.P { ] { {  .) / n < s oXC...{ &.=.&.} } _ _ _ _ / ` { D v $ = Y.S.o.<.=.} ",
"~ ! / / H V w . s XXz.k.x.v.v.j.j.l.j.j.j.m.m.Z . u q.) { ` _ _ ~ { ~ v < n ;Xz.*.-.*.*.} *...*.} o.o.{ ` { G M = + u.@Xz.o.<.<.",
"] / W H b z 6 . z |.m.H.G.m.M.H.F.F.F.M.v.k.J.,.O < ,.] ~ / / ..{ { { Z $ b C./ o...-.*.<.&.*.-.-.-.*.,.-. .D c 1 . n.'.6.o.-.o.",
"Z G b z d d 3 o q 3.,.3.-.4.-.-.,...} ` { ~ ` D $ + J ] ^ ^ ) G Z z w y < u i.e.4.,.-.........{ ....} { W D Z H p + ] ! M W W W ",
"< < o o o o . . . = < < 6 6 < < = @ @ o @ O o . . . = 5 : = = $ . . . . . o q z z z p y s p 8 w < 2 < < @ @ + O . . . 1 s i s p ",
"7 u x Z Z G H P ! V d < o O $ w p z n c v v b m d a X X * X . 3 V P G b d w q 3 @ . + X o o 3 w z V Z H H ~ ] { X.] P 6 . . . . ",
"[.).'.[.'.%X<X:X%X`.A.s + p.E.E.E.W.W.W.E.E.E.R.!.!.L.h.d 3 f.@X=X.X.X.X}.{.{.}.`.U.q.+.# u.&X$X$X&X%X:X*XXXE.L.n.f.f.w 4 ^ ] p.",
"4.*.&.o.o.<.e.e.o. .+.v O P.<.} { { { / / ) ) ) { O.O.5.3  .[.7.{ / W W ~ / / { { W  .v 4 %XP.e.S.S.n.i.,.) W K K W W @ ,.1X{.R.",
"*...*.&.} } o... . .,.Z @ E.,._ { { { { { { { { ` / _ s o <.H F W W W W W W R T H H Z $ Z [.W R W Q ~ ~ ~ ~ / ) ) ) / < / e.~ W ",
"..o.*.*.*.&.o...o. .O.M @  XZ._ } } } ` ` _ _ _ _ _ _ 7 p 9./ / / / / / / ~ ~ ~ W / ^ < G S.P { / / / ~ / / / / ^ K { < x / / / ",
"o.o.....&.*....... .3.m o E.XX} } &.*.=.;.<.<.4.9.r.k.T N 6.} -.o.o.*.*.O.O.-.-.o...,.n 6 <./ ~ / / _ ` ` ` ) / ) ! ~ < x O.{ _ ",
"o.O.o.o.*.*.....o.{ X.d o S.:Xm.r.j.v.c.M.M.m.m.m.m.J.A A r.o.-.o.&.&.*.*.*.o...o.-.,.! o B ~ ~ W W H F Z b z s p w u o l <.-.,.",
") ` / Q T A A B Z c v 1 o e.~.(.x.m.v.x.x.z.k.z.n.k.m.w w o.<.-.=.=.=.*.*.*.*.o.-...o.{ O $ w w w u u w w w y i p y y O 2 { ..,.",
"c z x x z x x l s s v 3 $ W { a.n.n.m.n.m.m.m.C.n.n.S.F . n F / } ..*.-.-.-.,.,.-.o.,. .< o i v n n V V M V V Z v Z s o p @.{ o.",
"s w w u e u w < < 1 6 @ 1 V { p.e.e.e.q.6.,.X.{ { O.,./ < w s z z n H W W W ! W W W P V = + 4 y w w s x b n n v M M p o 6 ) W K ",
"X # + . . . . . . . . . + 4 u d d d d p i q 3 1 < $ O O o . o O o . @ + = q $ - 1 : 3 3 X .     . . . . o @ < < 6 6 3 # @ X . . ",
"y # o i G W <.,.o.X.^ C q @ . . . . X o = + w w z b Z W { ,.9.r.<.W G H 3 + q 3 - # +   3 ' 5.q.,.X.^ Z d q = o . . . X . H 7.q.",
"p.q a.$X%X2X2X,X2X2X1X<X&X].D.a.6.] H i o 7.{.XX#X%X#X|.).~./.T.P.P.n.e.1 D &X[.{.p.o ) XX<X>X>X,X<X<X1X:XOX(.U.n.e.e.<.+ L.1XL.",
"+ d %X.XP.G.r.r.e.e.u.a.a.f.n.n.a.e.6.M o ..C.C.k.6.{ _ _ _ ~ ~ W R ~ x o n.#X`.|.) $ XXXXZ.x.x.S.z.9.<.,.,.,.,.O.,.{ ^ 1 f.@.P ",
"+ C $X(.k.a.z.r.9.-./ R F F F F Z R D . l < K { ! ~ / ` ` / / ` _ { ~ 1 8 ^.3./ ` 2 O ~.G.v.c.F.m.k.e.,.} Q T A A N Z x @ ) ^ ) ",
"X f =X(.m.F.m.m.Z.Z.m.i.4.o._ ~ / / s @ p.e.w M {  . .{ ) ) / W K F s $ q { R ! / s O J.Z.v.G.l.v.M.G.G.M.m.j.r.e.,.` W @ M { P ",
"o p $X(.j.j.k.M.v.x.x.m.Z.m.i.6.o.) q o 7.E.p.$ q a d i q 3 3 - 3 = 3 # 0 U ( ( ( i . p.S.m.b.N.l.c.N.v.l.m.N.M.M.m.k.C.A 2 p w ",
"o i $X).z.v.l.v.v.M.m.x.k.x.m.n.n.3.6 +  .! 5.V X .   . . . . . . X .     + = 3 = o . O.W.Z.C.m.N.N.N.N.l.l.l.l.j.m.x.n.z.2 @ y ",
"o i XXE.m.N.N.l.v.v.m.x.z.z.n.n.d.^ 3 $ ! ^ J G = p D G G W { O.,.,.<.+.W x p p s = o i O.,.<.z.m.n.Z.m.m.m.m.j.l.m.k.k.Z.^ + 3 ",
"+ 3 ^ W -.r.j.M.M.m.m.m.m.Z.k.k.) Z $ $ / ! { i q U.:X$X#X%XoX:XoX%XoX-X$XXX[.P.3.! @ < n x M H ..{ _ ` -.i.Z.m.M.M.m.m.Z.O.- + ",
"# $ d Z A H R _ ` ..*.-.o.{ R H ! s . c  .^ G o ^ m.4.4.4.6.<.<.<.4.*.-.*.*.{ H ! W O 1 Z H W ~ R T T Q R R _ } *.....{ / ^ i # ",
": X d ) H R T T H F G H H G H H V $ 6  .) K = o H { W { W W / ~ Q / / / / / / { ) v @ $ < v K H W ~ W R W W W R R T H K K W b + ",
"; + = y w i w y s i h d s s y 4 = + : m d # + X q i 3 q q y i y p y p d c c d a a : X . . . . . . o + = q s r y q y y r i q : # ",
"# 6 1 < < = 4 1 # o # X . . . o - # 3 + = - 3 3 q 6 3 3 q 6 3 4 3 < @ o . . X X   X 3 d C G ! W ^ n i - +   . X +         X . X ",
"`.{.{.XX{.].(.L.q.( : J y.p.d.n.n.A.D.A.D.U.Y.E.E.E.].(.'.[.[.(.`.(.Y.U.S.{ + < X.V.`.$X<X:X%X|.^.T.!.U.f.q.X.- = K X.7.7.a.A.S.",
"Y.d.a.p.i.6.] ^ I Y # f.%Xe.4.o.o.{  .{ o.} ..*.9.4.-.-.4.<.<.4.<.6.6.0.n.{ o r.2X;X%X).i.o.{ ~ T F { ,.6.q.7.. G 2X:X,X>X%XXX[.",
"Z Z B N N A Z Z K p . a.V.W { o.*.} ..=.*.} <.i.M.9.&.&.*.&...*.} *.} o.W o 2 OX|.H.;.Q H T R W E ~ Q R Z Z i . O.,Xa.-.} } _ / ",
"..o.&.&.&.o.{ { W 4 . e.S.9.n.z.k.x.m.x.k.z.M.M.m.8.*.*.-.-.=.=.-...o.,.b . z '.` E Q } } } | } } ` } { ~ G $ . a.U.T Q Q Q _ Q ",
"&.*.*.=.=.=.-...<.p . ..P.n.G.j.m.z.x.m.n.k.k.z.9.=.} o.o.*.*.*.o.o.,.W 4 . z '.e.<.=.,.=.=.:.*.,.,.-.@.,.] & + w.6...-._ _ Q [ ",
"=.*.&.$.$.&.-.O.O.x . W ~.a.m.n.z.m.m.x.x.m.n.r.=.&.*.*.o.o.o.o.*.-.{ b 3 X z +XP.G.0.} &.=.o.-...-.{ O.@.) = + { 4...-.<.>.:.$.",
"..o.o.o...o.o.o.` s o n W.k.n.m.m.v.x.x.v.x.9.} &.*.-.-.-.-.-.o...~ c x q . Z [.C.J.j.=.*.*...o.o.-.o.,.{ G @ @ R <.-.*.&.} =.*.",
",.,.,.,.-.O.O.-.^ 4 o 6 u.d.a.e.i.a.m.Z.r.-.*.<.-.*...` / W H M p p p d 3 . W &X6.9.8.;.-.<.3.,.,.-.,.X.P D $ @ M R { *.<.<.<.:.",
"! W W W H F F D M 1 $ $ v D F Z D H H H D F H Z M b c d p i q 3 1 = : + + X q ' W R R ! ! ! P J P K K V j m : $ a M M R W W { [ ",
"+ + O $ < < @ @ o . . o @ $ < $ @ $ 1 1 # X + = = = $ + . . .   .   X + - % % + = < @ o o .   X   .     .       . $ 3 3 w z p b ",
") Z c = + V /  .,.6.r.a.m.Z.n.a.O.) 1 . m ( h $ o + < 4 p n I X.5.t.A.U.Q.E.P.Z.e.6.d o q V J ( / { X.+.@.@.O.+.K : o X . . . o ",
"E.V.[.W 4 W.f.C.H.Y.I.G.m.n.m.n.S.O.$ 1 .X=X@.M i +.n.K.U.U.L.S.n.g.e.6.4.<.,.-.-...b . 1.!.S.U.I.P.S.S.P.U.Y.L.f.' 1 q s d s p ",
") / ] w d u.W ) ) ) _ / ~ ~ / / / H O F @X+.K y R 4.,.} ......{ ........o.o...{ ` o.n @ 5.!.D./ W W Q ! ! W ! ! s = 1 (..XXX*X*X",
"{ { H + s 3.X.{  .{ { } ..{ { { } ~ . d.Y.K D $ ` ,.*.-.<.*.*.-.*.*.*.o.*.*.*...-.{ v O ,.E.{ { { ` { { ) ) ) { s o W =XXXQ.t.X.",
"O...K = 3 +. .X.o.....o.....{ { { / , u.3.) s $ -.-.<.=.*.*.*.*.*.*.-.-.-.-.-.o.) Z y + Z { ] {  . .{  . . .{ ` 2 o (.XXP.a.2.:.",
"^ { b + q  .! ^ ! R H H H G Z n c u $ M ( ) y 6 ,.o.-.*.*.<.,.-.,.-.O. ./ R F Z M M z @ 3 d V V D D D D D V v z o ` {.b.n.N.N.B.",
"z w y @ 1 d r i y y w w y y w 6 4 < # J X.^ 3 + M D W / / / ` ) W H M c d z c c p q $ . . .   . . . . . . . . . > a.m.m.l.j.l.l.",
"o O o + . + = : 1 4 3 $ o . . o o # # C L 0 $ = = w q 6 w w i q w q q q 6 3 = + . # 3 b ^ X.q.,.,.@.{ ^ W K v p u n.v.j.v.N.j.c.",
"Z Z Z n b d 6 $ + . o 4 K @.{ H d q X .     X = . + . o O O o + + o . + . + o 3 p.A.].$X=X,X:X:X*X$X$XOXXX{.`.b.u 0.P.Z.F.M.M.M.",
"OX{.XX%X].W.!.m 3 ) S.|.'.A.E..X.X].L.s.y.#.h $ G X.6.e.a.n.n.f.p.e.e.q.5.] $ 3.E.6.4.a.k.a.e.6.,.,.o.,.,...{ H < s ~ *.9.r.k.r.",
"{ ..{ +.( ! P G (.E.V.-.~ F T / { o.] a.u.D.z c :X%X>X:X:X%XXXXXXX[.(.E.E.E.2 5.6.o.o.o.o.=.} *.8.a.a.k.b.n.p.~ = . $ $ $ @ 6 4 ",
"/ ~ W / ^ X.q { 3.H H H / ` W Q ~ H F d w 1 . ..:X^.~.P.k.,.{ -.| } Q A N w O o.6.,.4.,.<.;.-.r.G.x.m.m.m.z.V.P o 6 3 = 3 1 1 # ",
"_ / { / / ) < 6.O.W _ _ W Q / Q Q _ ~ W H D @ -.z.*.} [ } | ....=.} =.-...n . H  .K ! ) ~ ~ ~ ` ` ..4.,.<.3.O.3 1 p.A.p.p.p.q.{ ",
"~ / W W W n . V.H.Q / { _ / Q _ _ } { { { { 2 Z ,.} =.=.$.&.*.*.&.&.*.-.,.c @ 1 q i h d s c z s z l s c c i 5 X q +.{ O.O.X.+.^ ",
"v v x z w 4 = !.E.,.,.*.&.<.=.<.=.,.-.-.-.3.b s ,.o.o.o.| | o.| o.} _ ..H d # # X * X X # X . X + # + X X # + # i O.+.X.{ ..} k ",
"l l l z x $ y E.e.,.o.-.<.&.>.$.=.o.-.O.o.3.Z O B H S T S T H A A H A N b d : # # * * 5 t t j h a r a r 5 ; # # : c c Z R ~ T < "
};
