/* XPM */
static char *wall21701018974[] = {
/* columns rows colors chars-per-pixel */
"64 64 43 1 ",
"  c #706047",
". c #76664C",
"X c #77694E",
"o c #78694F",
"O c #7C6D53",
"+ c #7F7055",
"@ c #806F55",
"# c #817156",
"$ c #84755B",
"% c #87795E",
"& c #88795E",
"* c #8C7D63",
"= c #8F8165",
"- c #918166",
"; c #94846A",
": c #99876F",
"> c #96886D",
", c #99896E",
"< c #9D8D72",
"1 c #9F9075",
"2 c #A08F73",
"3 c #A39276",
"4 c #A6957A",
"5 c #A8977B",
"6 c #A7987B",
"7 c #AA9A7D",
"8 c #AE9D82",
"9 c #B09F83",
"0 c #AFA084",
"q c #B2A186",
"w c #B8A587",
"e c #B5A58A",
"r c #B8A78C",
"t c #B7A88C",
"y c #B9A98E",
"u c #BCAC92",
"i c #BEB095",
"p c #C0AF95",
"a c #C1B196",
"s c #C3B49A",
"d c #C7B99E",
"f c #C9B99F",
"g c #CCBCA2",
/* pixels */
"tu:#iqytww8887qq995ee9eeX800t9r98888999eq7wtu$>weeq88789ee9998ty",
"qu<Oywyw8875789988999eeeX8tty988488885897qwet#,y8te98euueeeq888e",
"qt>Oyqyq8875777724888998.8eet88848885<254008q+>y8qq879rq888t9888",
"tu:#t7y70qq8777543388898X8eee88989887445<008e#<uq8887479468q9989",
"tt>@t8yq77q9777884:88898X8eee886777797773078t+,iq075547q99838889",
"rt;#y0tq2479747948:988e9.8ee8833532355447070wo,y88443597eq938889",
"ey:Oy0w7237973378829e899X8808<83553355547q8qtO<yqq87778588888q48",
"8t>Ouqq7348q83379888q885X8008*<877337752388q0X<eq858975434888938",
"8y*@r797377q935998289985o89974297w537w7577w70+>eq957755553435737",
"8u;$r9973779748w55599992o58999777737w7777w777o<uq7759757887<4977",
"9y-#w9q97875438q24999894o49r99755335w55777777o<tq473q757998<3q97",
"qy-@q7qw9977547985995595.899p94423337325777pwO<wq457q95785545759",
"eu;Oqq8q7457998q5885:898.88898<237777w7777777$>uq83q952455775225",
"ey:#wwqq53477747443448e8.88898:27w757777766p7@2uww3q73,227wq5557",
"9y:Oryqw75755423824889e9 8e888<8753233777777p@>yww79773537qr99qq",
"ru:Oqy9977974758r99r99q8 8ur888853377ww7777ww#2iwwr89yqq99qr99qq",
"9u:$reu9tew87r67wqwt07ttXetue8eewwq899r70eeeu+:se84998881988888e",
"9i**ssyrtteeyrqqewqttise+0uiitueuyyq8rrueuuiu*,fgtyyyyqqr8e98teq",
"***+***>-**=--4;-====;>%+=>;:*:**;-<<-**=,=;=+$>:*******::****-;",
"*$*****$+***&$O#===%#+$$*+++++**$=#O$%**+%+*$$%%*$$*$***O****+**",
"ee888t9ueu8ti1Oqutytqeeee880qtwuuui+<atyt70ypq989999yrus**iuyiey",
"88989e98888tt1.tqqq78q0888887w7weeuX<u9ew666q7948888e9ep**i9t918",
"888889e488ete8O8qqwq707q88866677ee8X298r88e879ww888899qy+*98r988",
"8e9883488088t1.ew77q777y8eq741578teX<u8q868qww77882289ey%$p99988",
"8888542777948:X9q7775757777777770e0X8u88777777757777107t$*uq0784",
"><8833347997e<Xew076557775777757888X:uq0777777777q77600e%*ueq774",
"<88875552997r:Xeyq763477p7773777888X8uq033357w7776376q0w$*pwq433",
"8889q5554q97e;Xtww7323577w7737p7888X8tq8573577w773477qwt#*uqq434",
"482895955pp7w:Oeqq84444475377w77888 *e08677775777777777w$=tqq437",
"84<<58922997w:otqq87777423377777888 80q8576753777677437t%-tqq577",
"84:1445237979:oeqq77777527333777888 8ee857753233357777wy$&yq757q",
"8139e43899978;.rqq4444777753357w888 8q88577757753677777y&&yq7477",
"9779e72789<8e*Oeqq57737588648888:88 8u88388868w94437848t#*ye8849",
"7799952598<8t:Oqwq37777488888888888.<ee8488654775535549y**yr8288",
"553357878888u8Oqww7777553548488888q.1uu8398154445534469t#*uu9299",
"52,:39992<88e:oewq577q523544889988q.4eu888884233875568ee$*uyr888",
"97579ewe8889e<oerr889974889908q98ee.8eeue9998*889898899e&*pepe99",
"qq9q999ee899r<Oyrrte9898487888qeeeeO8u9e999e88885579qqet**seu99p",
"9q958599rerru8+ua9899997577888eteueO8se9888888887599qrwu**fp9899",
"qrq9wu99e9rui1Oyguuy9eweewe9qqtueuuO:gpueee008eee9qqqqqu*&sgrrp9",
"$#*;*+*+%##%$OO+*$**+$**;*$$%#$+$+$O%*%%+&%%X**++**+*#$#O@$$+$*#",
"<3*X=<>,:>;;;;;******<;*o;::<>;;:*::*******:8++8::*:*;:<::::;::;",
"us<Ouiuuqqqq9tr8e9r9tiiyOqsuyteeueee00qeeuppu+;siuryet9eeeerytee",
"0u1Ouqqt68889988888ee8e9 tuqe8888888080q88eee.8s99eey9u99988999t",
"qu<+t8ee7qq78q778648e9t8.qt8tq868880088*0eeeeO*eet98829799888889",
"qi,Ouee077qqq7qq87<<89t8Xqe8e888e888888888eeeO8u8e48359955588848",
"8u;Owt06777777777q68equ8.qrq9484888888q8888ee+*u9e88577554486889",
"ti;*0wy0qq774478yy8eu0e1oqypy98::8:880uq8888e+:up9989979549re9e9",
"tu1+u0u0eeeeq0eeeee8e9eeoes9088e8e0q00teeqeuu$:u9yrwe9et89u0teee",
"ui:$uuuueeuuue8eueeurup8O9gsuuereue0eetuueepu$:pppwrytteeettteuu",
"-;$+8*;*******<:***:-*:&O*::*******88******:*O$:;;******><;=>**;",
"*$**+++++*%**+++**&$&$*&**+$&**O**+X++**$*&+&**O#%*%*+*=O++**$#*",
"9t00e088e0uug8X8peueeupeee8eueqeese+8eiuueeuqqe88euuttus;*uutet8",
"8888888888eeu8X0eeeee8e88e888888eei+8p8eueee88888888eeeu*+ie9807",
"889e88888eee88+88ueee88e8888e888e8eX808yq0888qq886448equ**u8wq8w",
"8re80e888880e8.08e848<4488:888888u0.8eqe8:888qq8844180qi+*uqqq80",
":8888eeu888eu:O8eee884144881400e8t0O<uu08888:888888880ee+*uteq40",
"8888808888eee8Oeeue8eeee8888080eeeeO8uepue88e888eq8800eu**iuuuq8",
"8e08888088e8e8.uuue8e8e884888888eee.8se08808q888eeee080u**it07w8",
"q888888880ueu8Oefpeee8e888e888euuu8O8gfeeeeee88eeeyueuue*=giteyw",
"88*88:888:1:::+:e414418:4411::::11:%*88:8::8:888:8*88:88*+8863<3",
" o@&++X..OOoO+++..O.oO$.&+OOOO+$OOO%OoO.oO++X..O%OO.+O O+X.XOOo+",
"up*@ei8u8ee88ee08ee8eeu8.:eue88eee8e0eee888ee+:eye880080888898qq",
"ee8@sieeeeee888eee8ee8euO8ueeueee888ee0e8e00i+:s8y0880008888e8uq"
};
