/* XPM */
static char *wall41701018975[] = {
/* columns rows colors chars-per-pixel */
"64 64 9 1 ",
"  c #244C5A",
". c #264F5E",
"X c #2B5565",
"o c #0A2531",
"O c #1F4351",
"+ c #041B26",
"@ c #112E3B",
"# c #183946",
"$ c #326070",
/* pixels */
"o########OOOOO#OOOOOOO#####@++oo@@@@@@@@@@@@@@@@###@@@###@@@###o",
" XXXXXXXX$$$$$$$$$$$X$XXXXX o@O..XXXX$$$$$$$$$$$$$$$$$$$$$$$$XO@",
"$$X.    ....XXX..........XXOo@XX    ..XXXX$X$$$$$XXXXXXXXXXXX #@",
"$$. .         .O    . .....O@#$.   ....... ....... ........ ..O@",
"$$X .            ..... ...XO@#$X   ... .... . ..   . . . . ...#o",
"$$X           .O ... .. ...O@#$X  ............ ... . . . .... @o",
"$$X .        ..  ...... .. #o#$X   .............   .  . ....  @o",
"X$X          . X .... .....Oo@$X    .......... .. .... . ..OOO@o",
".$X          ..XX  .... ...O@@$X    ............  ..... . O .O@o",
"$$.         ...X.. O....... @@XX     ........ . . ....O    .. #@",
"$$   .   ........X.   ..  . #@XX    . . . .  . . ....  .  ... @o",
"$X      ......X... .O.. . . @@XX     .        . ..   ..... .. @o",
"XX    .......X.... .    ...O@#XX  . .          ..  ...X..X....#o",
"XX.    .........   .OO   ..Oo#$X        O         ....  .... O@o",
"X.O########OO#######@####OO#@@.O##@@##@@@#####@@@#OOO#@@@#O#@ooo",
"##@ooooooooo@ooo@o@ooooooo@@oo@ooooooooooo@@oo++oo@o@oooooooooo+",
"#O########@@@@ooo++o##@###O##@@#####@#####@@o++@##@@############",
"$$$$$$$$$$$$$XXX.#@ $$$$$$$$$X$$$$$$$$$$$$$X o@X$$$X$$$$$$$$$$$$",
"$$$$XXXXXXX$X$$$.##$$.XX$XXXXXX$XX...XXXX...X##$$$$$$$$$$$$$$X$X",
"X.XXXX.  . .....O@@X.......  .   . .        O@#X. ..XX..    ....",
"XXXXX.... ......O@@X. .... .. ..  . .       #o#X.  .  .  .....XX",
"XXX.X.. ......X.O@#X. ......... ..          #oOX.      ..   .XXX",
"X.X..X.....XXX..O@@........... . . .        #+O$.     . . ...XX.",
".X...........X.XO@@XX............ . ..    O #+#$$     .. .  .XXX",
"............X..XOo@XX....X..X... . . .     O#o#$$.   ..  .   ...",
" ............X.XOo@$X...X..XX.X..  . .   O  Oo#$$              .",
"....  ..  .....XOo@XX...X.X.........  .    OOo#$X               ",
"..   . . .....XXOo@$X....XX..... ... .      #o#X             . .",
".... .. .....XXXO@@X$.X.XXXXXXX...XX..     O#oOX             ...",
"OOOO#OOOOOOOOOOO#o@XX OO OOOOOOOOOOOOOOOO#O#@o# OOOOOOOOOOOOOOO#",
"ooooooo@@ooo@oooooo#@@@@ooooooo+ooooooooo@ooo+o@@@oo@@oooo@o@ooo",
"++++++++o++++o++++oo+++++++++++++++ooo+++o++o+ooo+++++o+o+++++++",
"OOOO@+@OOOOOOOOOOOOOOOOO OOO####oo#O       O     O OOOOOO###OOOO",
"$XX #+#.X.XXX......XXXX$$$$XXXXOo@.$$$$$$$$$XXX$$$$$$$$$XXXXXX$$",
"... #o#.  . . . ......X........#o@X$X...  ......   . . .   .....",
".  O@oO    . .. .. ....X...... #o@X$...  .   ..    .    O       ",
"...O@+O    .... ........X... . #o@.X...  . ..... ..   .  O     .",
"...O@+O     .... ....X.X....   #o@.X .  .  . .... . ..     . . .",
"...O@+O.   .............X..... #o@.X ..  ..  .. . . ..       ...",
"...O@+O.   ...........X....... #+@XX   .   .  .... .....     ...",
"...O@+O.   .........X.X.X.... .#+@.X.. .  .. .. . ....      .. .",
"...#@o .  . ......X..XXX.... ..#+@XX. .   . .  . ... . ..  . ...",
"...O@oO.     ............. ....OooX. .. .  ....... . . . . .....",
"...#@oO.      .. ....... ..... Oo@.. ............... . . X......",
".. #@+O     O OOOOO .          Oo@....... ...  ...       ... ..X",
"###@@+@#@@@@@@@oo@@@###@@@@@#@@@o@O##############O##############",
"oo+o+++o++++++++++++++++++++++++++o++o+oooo++++ooooooooooo++oo++",
"#@o++oo@@###@oo@###@o++o@@@ooo@@@@@@@@@o+o@####@@oo+oooo+++ooo@@",
"$$X.  XX$X$XXXXXXX. Ooo# XXXX$X$XXX$X$$. X$$$XXXX.  ..O@+o# .XXX",
"X$$$$$$$$XX..XX.... @+@ $XXXXX$XXXX.X.X X$$XX...XXXXXXO@+@ $X.XX",
"....X..             @+@O. ........... . O. .  .   .    @+@.X....",
".... ..   O     .   @+@O . ..........   O    . .       #+o.X....",
"......         .  . @+@ . ......X.X..   O    .         #++.$....",
"... ...   O      . O@+@  ..XX.XXXXX.    O   .. .       @++O$X...",
". ...    O         Oo+@   ..X.XXXXX..  O   ...     .   @++O$. ..",
". ..                o+@O ....X.X.XX..  O    ...        @++ $....",
"  . O    . ..    O O@+@O   .X...X..... O  ...    ..    @++.X....",
".       . ..       O@+#   ..XXX...X...  O  ..... ..    @+o.X    ",
" ..     . .        O@+#   .XX......... .OO..X..   .    #+@..  . ",
".        ..         @+#O  ....... ... ..   ....        @+@.  .  ",
"..      ..      .   #+@O  .... .   ...... ...          #+@.   ..",
"OOOOOOOOO    O O   O@+@OO O  OOOO  O OOOO#OOO OOOOOOOOO@+@ OOOOO",
"oooooo@@@@#@@@@@@@@@o+ooooooooooooooooooo+o+oooo+oooooo+++oooooo",
"++++++++++++++o+++++++++++++++++++++++++++++++++++++++++++++++++"
};
